<svg width="56" height="56" viewBox="0 0 56 56" fill="none" xmlns="http://www.w3.org/2000/svg">
<rect x="4" y="4" width="48" height="48" rx="24" fill="#FCDEDE"/>
<path d="M28 22V38M28 22H24.4643C23.9433 22 23.4437 21.7893 23.0753 21.4142C22.707 21.0391 22.5 20.5304 22.5 20C22.5 19.4696 22.707 18.9609 23.0753 18.5858C23.4437 18.2107 23.9433 18 24.4643 18C27.2143 18 28 22 28 22ZM28 22H31.5357C32.0567 22 32.5563 21.7893 32.9247 21.4142C33.293 21.0391 33.5 20.5304 33.5 20C33.5 19.4696 33.293 18.9609 32.9247 18.5858C32.5563 18.2107 32.0567 18 31.5357 18C28.7857 18 28 22 28 22ZM36 27V34.8C36 35.9201 36 36.4802 35.782 36.908C35.5903 37.2843 35.2843 37.5903 34.908 37.782C34.4802 38 33.9201 38 32.8 38L23.2 38C22.0799 38 21.5198 38 21.092 37.782C20.7157 37.5903 20.4097 37.2843 20.218 36.908C20 36.4802 20 35.9201 20 34.8V27M18 23.6L18 25.4C18 25.9601 18 26.2401 18.109 26.454C18.2049 26.6422 18.3578 26.7951 18.546 26.891C18.7599 27 19.0399 27 19.6 27L36.4 27C36.9601 27 37.2401 27 37.454 26.891C37.6422 26.7951 37.7951 26.6422 37.891 26.454C38 26.2401 38 25.9601 38 25.4V23.6C38 23.0399 38 22.7599 37.891 22.546C37.7951 22.3578 37.6422 22.2049 37.454 22.109C37.2401 22 36.9601 22 36.4 22L19.6 22C19.0399 22 18.7599 22 18.546 22.109C18.3578 22.2049 18.2049 22.3578 18.109 22.546C18 22.7599 18 23.0399 18 23.6Z" stroke="#EC091F" stroke-width="1.66667" stroke-linecap="round" stroke-linejoin="round"/>
<rect x="4" y="4" width="48" height="48" rx="24" stroke="#FDF2F2" stroke-width="8"/>
</svg>
