<svg width="46" height="46" viewBox="0 0 46 46" fill="none" xmlns="http://www.w3.org/2000/svg">
<rect x="3" y="3" width="40" height="40" rx="20" fill="#FCDEDE"/>
<g clip-path="url(#clip0_1398_142371)">
<path d="M22.9998 17.9974V31.3307M22.9998 17.9974H20.0534C19.6193 17.9974 19.2029 17.8218 18.8959 17.5092C18.589 17.1967 18.4165 16.7728 18.4165 16.3307C18.4165 15.8887 18.589 15.4648 18.8959 15.1522C19.2029 14.8397 19.6193 14.6641 20.0534 14.6641C22.3451 14.6641 22.9998 17.9974 22.9998 17.9974ZM22.9998 17.9974H25.9463C26.3804 17.9974 26.7968 17.8218 27.1037 17.5092C27.4107 17.1967 27.5832 16.7728 27.5832 16.3307C27.5832 15.8887 27.4107 15.4648 27.1037 15.1522C26.7968 14.8397 26.3804 14.6641 25.9463 14.6641C23.6546 14.6641 22.9998 17.9974 22.9998 17.9974ZM29.6665 22.1641V28.6641C29.6665 29.5975 29.6665 30.0642 29.4848 30.4207C29.3251 30.7343 29.0701 30.9893 28.7565 31.1491C28.4 31.3307 27.9333 31.3307 26.9998 31.3307L18.9998 31.3307C18.0664 31.3307 17.5997 31.3307 17.2432 31.1491C16.9296 30.9893 16.6746 30.7343 16.5148 30.4207C16.3332 30.0642 16.3332 29.5975 16.3332 28.6641V22.1641M14.6665 19.3307L14.6665 20.8307C14.6665 21.2974 14.6665 21.5308 14.7573 21.7091C14.8372 21.8659 14.9647 21.9933 15.1215 22.0732C15.2998 22.1641 15.5331 22.1641 15.9998 22.1641L29.9998 22.1641C30.4665 22.1641 30.6999 22.1641 30.8782 22.0732C31.035 21.9933 31.1624 21.8659 31.2423 21.7091C31.3332 21.5308 31.3332 21.2974 31.3332 20.8307V19.3307C31.3332 18.864 31.3332 18.6307 31.2423 18.4524C31.1624 18.2956 31.035 18.1681 30.8782 18.0882C30.6999 17.9974 30.4665 17.9974 29.9998 17.9974L15.9998 17.9974C15.5331 17.9974 15.2998 17.9974 15.1215 18.0882C14.9647 18.1681 14.8372 18.2956 14.7573 18.4524C14.6665 18.6307 14.6665 18.864 14.6665 19.3307Z" stroke="#EC091F" stroke-width="1.66667" stroke-linecap="round" stroke-linejoin="round"/>
</g>
<rect x="3" y="3" width="40" height="40" rx="20" stroke="#FDF2F2" stroke-width="6"/>
<defs>
<clipPath id="clip0_1398_142371">
<rect width="20" height="20" fill="white" transform="translate(13 13)"/>
</clipPath>
</defs>
</svg>
