<svg width="20" height="20" viewBox="0 0 20 20" fill="none" xmlns="http://www.w3.org/2000/svg">
<rect width="20" height="20" rx="10" fill="#F2F4F7"/>
<path d="M14.4443 15C14.4443 14.2247 14.4443 13.837 14.3486 13.5216C14.1332 12.8114 13.5774 12.2556 12.8672 12.0401C12.5517 11.9444 12.1641 11.9444 11.3888 11.9444H8.61098C7.83566 11.9444 7.44801 11.9444 7.13256 12.0401C6.42234 12.2556 5.86655 12.8114 5.65111 13.5216C5.55542 13.837 5.55542 14.2247 5.55542 15M12.4999 7.5C12.4999 8.88071 11.3806 10 9.99986 10C8.61915 10 7.49986 8.88071 7.49986 7.5C7.49986 6.11929 8.61915 5 9.99986 5C11.3806 5 12.4999 6.11929 12.4999 7.5Z" stroke="#475467" stroke-width="1.33333" stroke-linecap="round" stroke-linejoin="round"/>
</svg>
