<svg width="25" height="24" viewBox="0 0 25 24" fill="none" xmlns="http://www.w3.org/2000/svg">
<g clip-path="url(#clip0_512_91371)">
<path d="M24.2663 12.2743C24.2663 11.4586 24.2001 10.6384 24.059 9.83594H12.7402V14.4569H19.222C18.953 15.9473 18.0888 17.2657 16.8233 18.1034V21.1018H20.6903C22.9611 19.0118 24.2663 15.9252 24.2663 12.2743Z" fill="#4285F4"/>
<path d="M12.7401 23.9974C15.9766 23.9974 18.7059 22.9348 20.6945 21.1005L16.8276 18.1021C15.7517 18.8341 14.3627 19.2486 12.7445 19.2486C9.61388 19.2486 6.95946 17.1365 6.00705 14.2969H2.0166V17.3878C4.05371 21.44 8.2029 23.9974 12.7401 23.9974Z" fill="#34A853"/>
<path d="M6.00277 14.3027C5.50011 12.8123 5.50011 11.1985 6.00277 9.70813V6.61719H2.01674C0.314734 10.008 0.314734 14.0028 2.01674 17.3936L6.00277 14.3027Z" fill="#FBBC04"/>
<path d="M12.7401 4.74966C14.4509 4.7232 16.1044 5.36697 17.3434 6.54867L20.7695 3.12262C18.6001 1.0855 15.7208 -0.034466 12.7401 0.000808666C8.2029 0.000808666 4.05371 2.55822 2.0166 6.61481L6.00264 9.70575C6.95064 6.86173 9.60947 4.74966 12.7401 4.74966Z" fill="#EA4335"/>
</g>
<defs>
<clipPath id="clip0_512_91371">
<rect width="24" height="24" fill="white" transform="translate(0.5)"/>
</clipPath>
</defs>
</svg>
