<svg width="19" height="10" viewBox="0 0 19 10" fill="none" xmlns="http://www.w3.org/2000/svg">
<mask id="path-1-inside-1_814_425" fill="white">
<path d="M9.09326 9.75L-7.62939e-06 0L9.09326 7.25L18.1865 0L9.09326 9.75Z"/>
</mask>
<path d="M9.09326 9.75L7.63064 11.1141L9.09326 12.6823L10.5559 11.1141L9.09326 9.75ZM-7.62939e-06 0L1.2468 -1.5638L-1.46262 1.3641L-7.62939e-06 0ZM18.1865 0L19.6491 1.3641L16.9397 -1.5638L18.1865 0ZM9.09326 7.25L7.84645 8.8138L9.09326 9.80787L10.3401 8.8138L9.09326 7.25ZM10.5559 8.3859L1.46261 -1.3641L-1.46262 1.3641L7.63064 11.1141L10.5559 8.3859ZM16.7239 -1.3641L7.63064 8.3859L10.5559 11.1141L19.6491 1.3641L16.7239 -1.3641ZM-1.24681 1.5638L7.84645 8.8138L10.3401 5.6862L1.2468 -1.5638L-1.24681 1.5638ZM10.3401 8.8138L19.4333 1.5638L16.9397 -1.5638L7.84645 5.6862L10.3401 8.8138Z" fill="white" mask="url(#path-1-inside-1_814_425)"/>
</svg>
