<svg width="17" height="16" viewBox="0 0 17 16" fill="none" xmlns="http://www.w3.org/2000/svg">
<path d="M2.7002 2.5C2.7002 2.22386 2.92405 2 3.2002 2H5.7002C5.97634 2 6.2002 2.22386 6.2002 2.5V13.5C6.2002 13.7761 5.97634 14 5.7002 14H3.2002C2.92405 14 2.7002 13.7761 2.7002 13.5V2.5Z" fill="currentColor"/>
<path d="M10.7002 2.5C10.7002 2.22386 10.9241 2 11.2002 2H13.7002C13.9763 2 14.2002 2.22386 14.2002 2.5V13.5C14.2002 13.7761 13.9763 14 13.7002 14H11.2002C10.9241 14 10.7002 13.7761 10.7002 13.5V2.5Z" fill="currentColor"/>
</svg>
