<svg width="24" height="24" viewBox="0 0 24 24" fill="none" xmlns="http://www.w3.org/2000/svg">
<path d="M22 9.00383L16 15.0038M16 9.00383L22 15.0038M9.63432 5.36952L6.46863 8.5352C6.29568 8.70816 6.2092 8.79463 6.10828 8.85647C6.01881 8.9113 5.92127 8.95171 5.81923 8.9762C5.70414 9.00383 5.58185 9.00383 5.33726 9.00383H3.6C3.03995 9.00383 2.75992 9.00383 2.54601 9.11283C2.35785 9.2087 2.20487 9.36168 2.10899 9.54984C2 9.76375 2 10.0438 2 10.6038V13.4038C2 13.9639 2 14.2439 2.10899 14.4578C2.20487 14.646 2.35785 14.799 2.54601 14.8948C2.75992 15.0038 3.03995 15.0038 3.6 15.0038H5.33726C5.58185 15.0038 5.70414 15.0038 5.81923 15.0315C5.92127 15.056 6.01881 15.0964 6.10828 15.1512C6.2092 15.213 6.29568 15.2995 6.46863 15.4725L9.63431 18.6381C10.0627 19.0665 10.2769 19.2807 10.4608 19.2952C10.6203 19.3077 10.7763 19.2432 10.8802 19.1215C11 18.9812 11 18.6783 11 18.0725V5.9352C11 5.32939 11 5.02648 10.8802 4.88622C10.7763 4.76451 10.6203 4.69992 10.4608 4.71248C10.2769 4.72695 10.0627 4.94114 9.63432 5.36952Z" stroke="currentColor" stroke-width="2" stroke-linecap="round" stroke-linejoin="round"/>
</svg>
